<?xml version="1.0" encoding="utf-8"?>
<!-- Generator: Adobe Illustrator 19.2.1, SVG Export Plug-In . SVG Version: 6.00 Build 0)  -->
<!DOCTYPE svg PUBLIC "-//W3C//DTD SVG 1.1//EN" "http://www.w3.org/Graphics/SVG/1.1/DTD/svg11.dtd">
<svg version="1.1" id="Layer_1" xmlns="http://www.w3.org/2000/svg" xmlns:xlink="http://www.w3.org/1999/xlink" x="0px" y="0px"
	 viewBox="0 0 143.1 135.2" style="enable-background:new 0 0 143.1 135.2;" xml:space="preserve">
<style type="text/css">
	.st0{fill:#FFFFFF;}
</style>
<title>stagewhite</title>
<path class="st0" d="M127,100.7c2.2,0,4-1.8,4-4V18.4c0-2.2-1.8-4-4-4H16c-2.2,0-4,1.8-4,4v78.3c0,2.2,1.8,4,4,4c0,0,0,0,0,0H127z
	 M103.5,77.1v15.6H39.6V77.1c0.1-4-1.2-8-3.8-11.1c5.3-1.7,9.8-5,12.9-9.6c2.4-3.6,3.8-7.7,3.9-12V22.3h37.8v22.2
	c0.2,4.3,1.5,8.4,3.9,12c3.1,4.6,7.7,7.9,12.9,9.6C104.7,69.2,103.4,73.1,103.5,77.1L103.5,77.1L103.5,77.1z M20,60.1V22.3h24.7
	v22.1c-0.2,2.8-1.2,5.6-2.8,7.9c-3.6,5.2-10.1,7.8-19.4,7.8H20z M22.5,68L22.5,68c1.7,0.1,3.4,0.5,5,1.3c2.8,1.5,4.2,4,4.2,7.8v15.6
	H20V68H22.5z M123.1,68v24.7h-11.6V77.1c0-3.8,1.3-6.3,4.2-7.8c1.6-0.8,3.3-1.2,5-1.3C120.6,68,123.1,68,123.1,68z M120.5,60.1
	c-9.2,0-15.8-2.6-19.4-7.8c-1.6-2.3-2.6-5-2.8-7.9V22.3h24.7v37.8L120.5,60.1L120.5,60.1z"/>
<path class="st0" d="M123.8,105.8H97.7c-2.2,0-4,1.8-4,4c0,2.2,1.8,4,4,4h26.1c2.2,0,4-1.8,4-4C127.7,107.6,126,105.8,123.8,105.8
	L123.8,105.8C123.8,105.8,123.8,105.8,123.8,105.8z"/>
<path class="st0" d="M84.6,113.7c2.2,0,4-1.8,4-4c0-2.2-1.8-4-4-4l0,0H58.5c-2.2,0-4,1.8-4,4c0,2.2,1.8,4,4,4H84.6z"/>
<path class="st0" d="M49.4,109.8c0-2.2-1.8-4-4-4h0H19.3c-2.2,0-4,1.8-4,4c0,2.2,1.8,4,4,4h26.1C47.6,113.7,49.4,112,49.4,109.8
	L49.4,109.8z"/>
<path class="st0" d="M65,118.9H38.9c-2.2,0-4,1.8-4,4c0,2.2,1.8,4,4,4H65c2.2,0,4-1.8,4-4C69,120.7,67.2,118.9,65,118.9L65,118.9
	L65,118.9z"/>
<path class="st0" d="M104.2,118.9H78.1c-2.2,0-4,1.8-4,4c0,2.2,1.8,4,4,4h26.1c2.2,0,4-1.8,4-4C108.1,120.7,106.4,118.9,104.2,118.9
	L104.2,118.9L104.2,118.9z"/>
</svg>
