<?xml version="1.0" encoding="utf-8"?>
<!-- Generator: Adobe Illustrator 19.2.1, SVG Export Plug-In . SVG Version: 6.00 Build 0)  -->
<!DOCTYPE svg PUBLIC "-//W3C//DTD SVG 1.1//EN" "http://www.w3.org/Graphics/SVG/1.1/DTD/svg11.dtd">
<svg version="1.1" id="Layer_1" xmlns="http://www.w3.org/2000/svg" xmlns:xlink="http://www.w3.org/1999/xlink" x="0px" y="0px"
	 viewBox="0 0 143.1 135.2" style="enable-background:new 0 0 143.1 135.2;" xml:space="preserve">
<style type="text/css">
	.st0{fill:#FFFFFF;}
</style>
<title>stagewhite</title>
<path class="st0" d="M138.3,103.8c2.6,0,4.8-2.1,4.8-4.8V4.8c0-2.6-2.1-4.8-4.8-4.8H4.8C2.1,0,0,2.1,0,4.8V99c0,2.6,2.1,4.8,4.8,4.8
	c0,0,0,0,0,0H138.3z M110,75.5v18.8H33.1V75.5c0.2-4.8-1.5-9.6-4.5-13.3c6.3-2,11.8-6,15.5-11.5c2.9-4.3,4.5-9.3,4.7-14.4V9.5h45.5
	v26.7c0.2,5.2,1.8,10.2,4.7,14.4c3.7,5.5,9.2,9.5,15.5,11.5C111.5,65.9,109.9,70.6,110,75.5L110,75.5L110,75.5z M9.6,55V9.5h29.7
	v26.6c-0.2,3.4-1.4,6.7-3.4,9.5C31.6,51.9,23.8,55,12.6,55H9.6z M12.6,64.5L12.6,64.5c2.1,0.1,4.1,0.6,6,1.6c3.4,1.8,5,4.8,5,9.4
	v18.8h-14V64.5H12.6z M133.6,64.5v29.8h-14V75.5c0-4.6,1.6-7.6,5-9.4c1.9-0.9,3.9-1.5,6-1.6C130.6,64.5,133.6,64.5,133.6,64.5z
	 M130.5,55c-11.1,0-19-3.1-23.3-9.3c-2-2.8-3.1-6.1-3.4-9.5V9.5h29.8V55L130.5,55L130.5,55z"/>
<path class="st0" d="M134.4,110H103c-2.6,0-4.8,2.1-4.8,4.8c0,2.6,2.1,4.8,4.8,4.8h31.4c2.6,0,4.8-2.1,4.8-4.8S137,110,134.4,110
	L134.4,110C134.4,110,134.4,110,134.4,110z"/>
<path class="st0" d="M87.3,119.5c2.6,0,4.8-2.1,4.8-4.8s-2.1-4.8-4.8-4.8l0,0H55.8c-2.6,0-4.8,2.1-4.8,4.8s2.1,4.8,4.8,4.8H87.3z"/>
<path class="st0" d="M44.9,114.8c0-2.6-2.1-4.8-4.8-4.8h0H8.7c-2.6,0-4.8,2.1-4.8,4.8s2.1,4.8,4.8,4.8h31.4
	C42.7,119.5,44.9,117.4,44.9,114.8L44.9,114.8z"/>
<path class="st0" d="M63.7,125.7H32.3c-2.6,0-4.8,2.1-4.8,4.8c0,2.6,2.1,4.8,4.8,4.8h31.4c2.6,0,4.8-2.1,4.8-4.8
	C68.4,127.8,66.3,125.7,63.7,125.7L63.7,125.7L63.7,125.7z"/>
<path class="st0" d="M110.8,125.7H79.4c-2.6,0-4.8,2.1-4.8,4.8c0,2.6,2.1,4.8,4.8,4.8h31.4c2.6,0,4.8-2.1,4.8-4.8
	C115.6,127.8,113.5,125.7,110.8,125.7L110.8,125.7L110.8,125.7z"/>
</svg>
