<?xml version="1.0" encoding="utf-8"?>
<!-- Generator: Adobe Illustrator 19.2.1, SVG Export Plug-In . SVG Version: 6.00 Build 0)  -->
<!DOCTYPE svg PUBLIC "-//W3C//DTD SVG 1.1//EN" "http://www.w3.org/Graphics/SVG/1.1/DTD/svg11.dtd">
<svg version="1.1" id="Layer_1" xmlns="http://www.w3.org/2000/svg" xmlns:xlink="http://www.w3.org/1999/xlink" x="0px" y="0px"
	 viewBox="0 0 143 135" style="enable-background:new 0 0 143 135;" xml:space="preserve">
<style type="text/css">
	.st0{fill:#FFFFFF;}
</style>
<title>theater-tickets</title>
<path class="st0" d="M93,93.7c0,3.3-2.7,5.9-6,5.9H41c-3.3,0-5.9-2.7-6-6v-17c0-3.3,2.7-5.9,6-6h46.1c3.3,0,5.9,2.7,6,6V93.7
	L93,93.7z M87.1,67.1H41c-5.3,0-9.6,4.3-9.6,9.6v17c0,5.3,4.3,9.6,9.6,9.6h46.1c5.3,0,9.6-4.3,9.6-9.6v-17
	C96.7,71.4,92.4,67.1,87.1,67.1L87.1,67.1z"/>
<path class="st0" d="M114,99.5c-4.9,1.1-8.7,4.9-9.8,9.8H23.9c-1.1-4.9-4.9-8.7-9.8-9.8V70.9c4.9-1.1,8.7-4.9,9.8-9.8h80.3
	c1.1,4.9,4.9,8.7,9.8,9.8V99.5z M39.5,31.5c2.3,0.4,4.7,0.2,6.9-0.7c2.2-0.9,4.1-2.4,5.4-4.3l71.3,30.2c-0.8,4.7,1.1,9.5,5,12.3
	l-8.7,20V68.4c0-1.5-1.2-2.7-2.7-2.7c0,0,0,0,0,0c-4,0-7.3-3.3-7.3-7.3c0-1.5-1.2-2.7-2.7-2.7c0,0,0,0,0,0h-77L39.5,31.5z
	 M134.1,68.9c0.6-1.4,0-3-1.4-3.6c0,0,0,0,0,0c-3.6-1.5-5.2-5.6-3.7-9.2c0.6-1.4-0.1-3-1.4-3.6c0,0,0,0,0,0L51.7,20.5
	c-1.4-0.6-3,0.1-3.6,1.4c-0.7,1.7-2.1,3.1-3.8,3.8c-1.7,0.7-3.7,0.7-5.4,0c-1.4-0.6-3,0.1-3.6,1.5c0,0,0,0,0,0L23.7,55.6h-2.3
	c-1.5,0-2.7,1.2-2.7,2.7c0,0,0,0,0,0c0,4-3.3,7.3-7.3,7.3c-1.5,0-2.7,1.2-2.7,2.7v33.5c0,1.5,1.2,2.7,2.7,2.7c0,0,0,0,0,0
	c4,0,7.3,3.3,7.3,7.3c0,1.5,1.2,2.7,2.7,2.7c0,0,0,0,0,0h85.2c1.5,0,2.7-1.2,2.7-2.7c0,0,0,0,0,0c0-4,3.3-7.3,7.3-7.3
	c1.1,0,2.1-0.6,2.5-1.6v0v0L134.1,68.9z"/>
<rect x="20.4" y="71.2" class="st0" width="3.6" height="28.9"/>
</svg>
